<svg id="visual" viewBox="0 0 900 100" width="900" height="100" xmlns="http://www.w3.org/2000/svg" xmlns:xlink="http://www.w3.org/1999/xlink" version="1.1"><path d="M0 72L21.5 67.7C43 63.3 86 54.7 128.8 50.2C171.7 45.7 214.3 45.3 257.2 45.8C300 46.3 343 47.7 385.8 46.5C428.7 45.3 471.3 41.7 514.2 40.8C557 40 600 42 642.8 47.7C685.7 53.3 728.3 62.7 771.2 64C814 65.3 857 58.7 878.5 55.3L900 52L900 101L878.5 101C857 101 814 101 771.2 101C728.3 101 685.7 101 642.8 101C600 101 557 101 514.2 101C471.3 101 428.7 101 385.8 101C343 101 300 101 257.2 101C214.3 101 171.7 101 128.8 101C86 101 43 101 21.5 101L0 101Z" fill="#222222"></path></svg>